HIERARCHY
ROOT Hips
{
	OFFSET 0.000000 0.000000 0.000000
	CHANNELS 6 Xposition Yposition Zposition Zrotation Yrotation Xrotation 
	JOINT LHipJoint
	{
		OFFSET 0.000000 0.000000 0.000000
		CHANNELS 3 Zrotation Yrotation Xrotation
		JOINT LeftUpLeg
		{
			OFFSET 1.363060 -1.794630 0.839290
			CHANNELS 3 Zrotation Yrotation Xrotation
			JOINT LeftLeg
			{
				OFFSET 2.448110 -6.726130 0.000000
				CHANNELS 3 Zrotation Yrotation Xrotation
				JOINT LeftFoot
				{
					OFFSET 2.562200 -7.039590 0.000000
					CHANNELS 3 Zrotation Yrotation Xrotation
					JOINT LeftToeBase
					{
						OFFSET 0.157640 -0.433110 2.322550
						CHANNELS 3 Zrotation Yrotation Xrotation
						End Site
						{
							OFFSET 0.000000 0.000000 0.000000
						}
					}
				}
			}
		}
	}
	JOINT RHipJoint
	{
		OFFSET 0.000000 0.000000 0.000000
		CHANNELS 3 Zrotation Yrotation Xrotation
		JOINT RightUpLeg
		{
			OFFSET -1.305520 -1.794630 0.839290
			CHANNELS 3 Zrotation Yrotation Xrotation
			JOINT RightLeg
			{
				OFFSET -2.542530 -6.985550 0.000000
				CHANNELS 3 Zrotation Yrotation Xrotation
				JOINT RightFoot
				{
					OFFSET -2.568260 -7.056230 0.000000
					CHANNELS 3 Zrotation Yrotation Xrotation
					JOINT RightToeBase
					{
						OFFSET -0.164730 -0.452590 2.363150
						CHANNELS 3 Zrotation Yrotation Xrotation
						End Site
						{
							OFFSET 0.000000 0.000000 0.000000
						}
					}
				}
			}
		}
	}
	JOINT LowerBack
	{
		OFFSET 0.000000 0.000000 0.000000
		CHANNELS 3 Zrotation Yrotation Xrotation
		JOINT Spine
		{
			OFFSET 0.028270 2.035590 -0.193380
			CHANNELS 3 Zrotation Yrotation Xrotation
			JOINT Spine1
			{
				OFFSET 0.056720 2.048850 -0.042750
				CHANNELS 3 Zrotation Yrotation Xrotation
				JOINT Neck
				{
					OFFSET 0.000000 0.000000 0.000000
					CHANNELS 3 Zrotation Yrotation Xrotation
					JOINT Neck1
					{
						OFFSET -0.054170 1.746240 0.172020
						CHANNELS 3 Zrotation Yrotation Xrotation
						JOINT Head
						{
							OFFSET 0.104070 1.761360 -0.123970
							CHANNELS 3 Zrotation Yrotation Xrotation
							End Site
							{
								OFFSET 0.000000 0.000000 0.000000
							}
						}
					}
				}
				JOINT LeftShoulder
				{
					OFFSET 0.000000 0.000000 0.000000
					CHANNELS 3 Zrotation Yrotation Xrotation
					JOINT LeftArm
					{
						OFFSET 3.362410 1.200890 -0.311210
						CHANNELS 3 Zrotation Yrotation Xrotation
						JOINT LeftForeArm
						{
							OFFSET 4.983000 -0.000000 -0.000000
							CHANNELS 3 Zrotation Yrotation Xrotation
							JOINT LeftHand
							{
								OFFSET 3.483560 -0.000000 -0.000000
								CHANNELS 3 Zrotation Yrotation Xrotation
								JOINT LeftFingerBase
								{
									OFFSET 0.000000 0.000000 0.000000
									CHANNELS 3 Zrotation Yrotation Xrotation
									JOINT LeftHandIndex1
									{
										OFFSET 0.715260 -0.000000 -0.000000
										CHANNELS 3 Zrotation Yrotation Xrotation
										End Site
										{
											OFFSET 0.000000 0.000000 0.000000
										}
									}
								}
								JOINT LThumb
								{
									OFFSET 0.000000 0.000000 0.000000
									CHANNELS 3 Zrotation Yrotation Xrotation
									End Site
									{
										OFFSET 0.000000 0.000000 0.000000
									}
								}
							}
						}
					}
				}
				JOINT RightShoulder
				{
					OFFSET 0.000000 0.000000 0.000000
					CHANNELS 3 Zrotation Yrotation Xrotation
					JOINT RightArm
					{
						OFFSET -3.136600 1.374050 -0.404650
						CHANNELS 3 Zrotation Yrotation Xrotation
						JOINT RightForeArm
						{
							OFFSET -5.241900 -0.000000 -0.000000
							CHANNELS 3 Zrotation Yrotation Xrotation
							JOINT RightHand
							{
								OFFSET -3.444170 -0.000000 -0.000000
								CHANNELS 3 Zrotation Yrotation Xrotation
								JOINT RightFingerBase
								{
									OFFSET 0.000000 0.000000 0.000000
									CHANNELS 3 Zrotation Yrotation Xrotation
									JOINT RightHandIndex1
									{
										OFFSET -0.622530 -0.000000 -0.000000
										CHANNELS 3 Zrotation Yrotation Xrotation
										End Site
										{
											OFFSET 0.000000 0.000000 0.000000
										}
									}
								}
								JOINT RThumb
								{
									OFFSET 0.000000 0.000000 0.000000
									CHANNELS 3 Zrotation Yrotation Xrotation
									End Site
									{
										OFFSET 0.000000 0.000000 0.000000
									}
								}
							}
						}
					}
				}
			}
		}
	}
}
MOTION
Frames: 4
Frame Time: 0.008333
0.383814 17.552179 -1.797300 2.099843 3.211474 19.239496 -3.349665 -2.549588 -0.890375 -17.808149 2.278747 -18.226071 0.340521 9.382816 25.420364 3.194889 -12.820220 -10.763725 0.049800 -1.440600 -3.962000 -0.172510 2.551846 -4.018981 14.184665 5.269811 -46.740081 -2.773770 -14.303033 38.121258 0.306279 -4.138633 -7.541883 -0.211900 2.963500 -8.177000 -1.385100 -0.978478 -6.568273 0.836203 -1.542961 -9.560463 -0.250725 -0.579331 -0.838855 -2.713454 -1.671211 -7.855638 5.475288 -2.595947 12.633588 0.975600 -0.990900 4.372800 13.036681 7.270971 -0.696990 -96.653284 -7.269030 36.179511 18.848099 -36.582873 -5.939572 -0.115209 -0.645293 -5.146905 22.321055 -17.270660 -6.734000 -7.125000 0.000000 0.000000 -3.524800 12.160200 2.708500 -13.673359 -6.715686 1.268668 101.931010 -18.541590 -42.069531 -2.903722 10.709340 0.063826 -1.628415 0.241808 47.677968 -21.001588 -34.693005 11.310200 7.125000 0.000000 0.000000 16.658400 -64.780100 -8.077800 
0.383599 17.531095 -1.548810 2.149072 3.351319 19.233084 -3.414758 -2.482045 -0.712625 -17.793708 2.844463 -17.113718 0.214585 9.064968 24.542718 3.240311 -13.220942 -10.599905 0.044800 -1.365300 -3.754600 -0.101866 2.599309 -4.126742 14.063991 5.136788 -46.738705 -1.969188 -13.370203 34.829716 0.452295 -4.870515 -6.718395 -0.429400 4.205100 -11.654500 -1.325295 -0.941200 -6.689417 0.813007 -1.496104 -9.540389 -0.305250 -0.567922 -0.810684 -2.661006 -1.686250 -7.534697 5.505449 -2.637580 12.382085 0.978900 -1.017600 4.158200 12.996546 7.229254 -0.732599 -96.278240 -8.044177 37.736426 19.797773 -37.644668 -6.438875 -0.077209 -0.625016 -6.699210 22.783191 -17.255774 -6.882100 -7.125000 0.000000 0.000000 -3.233500 12.094200 2.488300 -13.631187 -6.714492 1.322277 102.029108 -19.454608 -42.249351 -3.026680 10.986108 0.023660 -1.594247 0.239648 46.824948 -21.291536 -34.027840 11.309100 7.125000 0.000000 0.000000 15.744000 -64.263000 -7.434600 
0.376392 17.506354 -1.307958 2.206711 3.510241 19.138104 -3.472253 -2.410000 -0.541364 -17.797915 3.562237 -16.044444 0.110273 8.797531 23.806436 3.232777 -12.834512 -11.004275 0.175900 -2.701900 -7.450000 -0.026750 2.656677 -4.237977 13.758788 5.233054 -46.481529 -1.236210 -12.392011 31.570235 0.470469 -4.921765 -6.092909 -0.411300 4.117000 -11.406200 -1.332428 -0.951341 -6.643189 0.809548 -1.491442 -9.440428 -0.322303 -0.584856 -0.586371 -2.568117 -1.736130 -7.843107 5.499132 -2.701315 12.228678 0.948100 -1.046700 4.148900 12.991751 7.207849 -0.771080 -95.966140 -9.279109 39.002946 20.629994 -38.562138 -6.905168 -0.052125 -0.592357 -7.774720 22.764460 -16.882444 -6.735600 -7.125000 0.000000 0.000000 -3.234800 12.457700 2.464900 -13.619087 -6.716831 1.363469 102.148249 -19.827565 -42.769285 -3.056140 11.043303 0.005590 -1.569518 0.255589 46.566368 -21.550232 -33.403953 11.288300 7.125000 0.000000 0.000000 14.937300 -63.763000 -6.871000 
0.367141 17.486883 -1.084963 2.505576 4.161636 19.150371 -3.524045 -2.339908 -0.391571 -17.897678 4.004206 -15.079574 -0.009623 8.509923 23.006765 3.211635 -12.510417 -11.275107 0.445200 -4.281100 -11.868900 0.025528 2.723939 -4.349652 13.167021 4.984236 -46.352037 -0.605722 -11.398961 28.432482 0.442865 -4.726957 -5.432448 -0.439500 4.254100 -11.792600 -1.547686 -1.204964 -6.471345 0.855219 -1.774398 -9.407392 -0.219437 -0.736870 -0.526671 -2.469093 -1.764020 -8.102323 5.449157 -2.731040 12.134840 0.894400 -1.059100 4.162400 12.987283 7.189578 -0.807940 -95.718463 -10.347852 39.622578 21.468296 -39.450901 -7.379060 -0.053392 -0.564233 -7.726416 22.643184 -16.783675 -6.668400 -7.125000 0.000000 0.000000 -3.313400 12.545500 2.518900 -13.580366 -6.703740 1.386789 102.139121 -20.242855 -42.145199 -3.126075 11.220954 -0.011625 -1.573994 0.210498 45.071576 -21.608760 -33.388826 11.319900 7.125000 0.000000 0.000000 14.850100 -63.762600 -6.829900 
